<?xml version="1.0" encoding="UTF-8"?>
<svg id="_圖層_1" data-name="圖層_1" xmlns="http://www.w3.org/2000/svg" viewBox="0 0 144.83 283.46">
  <defs>
    <style>
      .cls-1 {
        fill: #ef3e42;
      }
    </style>
  </defs>
  <path class="cls-1" d="M144.15,157.95c0-.48.13-.99.24-1.5.14-.55.28-1.12.25-1.68-.03-.69-.28-1.34-.51-1.98-.24-.66-.48-1.3-.48-1.96,0-.76.24-1.52.5-2.31.2-.62.41-1.27.5-1.93.19-1.59.12-3.3.05-4.97-.05-1.18-.09-2.29-.05-3.32.01-.33.06-.65.09-.97.06-.55.13-1.08.07-1.58-.05-.41-.2-.8-.35-1.17-.16-.38-.3-.75-.31-1.09,0-.42.11-.84.24-1.31.1-.36.21-.74.25-1.12.11-1.1.06-2.21,0-3.29-.06-1.13-.13-2.29,0-3.48.01-.11-.1-.6-.17-.69-1.65-1.93-4.47-2.48-7.27-1.91-.06.02-.11.04-.16.08-1.13.81-1.13,2.31-1.12,3.74,0,.79.15.73-.04,1.37-.05.15-.06.97.05,1.08.19.18.11,1.19.13,1.76.03.87.13,1.42.31,2.21-.11.65-.05,1.5-.13,2.16-.19,1.71-.39,3.47-1.19,4.5-.4.11-.77.17-1.13.17-1,0-1.76-.43-2.56-.89-.27-.16-.55-.31-.84-.45-.45-.23-.95-.48-1.47-.75-1.19-.61-2.55-1.3-3.68-1.75-.94-.37-2.1-.49-3.32-.6-1.28-.12-2.62-.24-3.59-.7-.57-.27-1.06-.73-1.56-1.21-.57-.53-1.16-1.09-1.91-1.43-.35-.16-.72-.21-1.08-.27-.33-.05-.64-.1-.89-.23-.43-.2-.88-.6-1.31-.99-.3-.28-.61-.55-.94-.78-.67-.48-1.26-.85-1.86-1.19-.34-.19-.7-.33-1.05-.48-.39-.16-.77-.31-1.09-.5-.43-.26-.87-.65-1.31-1.02-.32-.27-.65-.55-.98-.78-.49-.36-1-.71-1.51-1.08-2.05-1.43-4.16-2.89-5.32-4.61-.07-.1-.18-.17-.3-.18-1.07-.13-1.55-.75-2.11-1.47-.28-.36-.58-.75-.97-1.08-.7-.59-1.5-1.09-2.27-1.59-.88-.55-1.71-1.08-2.34-1.69-.38-.37-.7-.79-1.02-1.2-.39-.5-.79-1.03-1.31-1.46-.46-.39-.93-.72-1.38-1.04-.58-.42-1.13-.8-1.57-1.25-.17-.17-.33-.28-.47-.38-.13-.09-.25-.16-.33-.26-.54-.61-1.08-1.32-1.59-2.01-.87-1.16-1.77-2.37-2.76-3.15-.31-.25-.67-.44-1.03-.61-.79-.4-1.26-.68-1.29-1.23-.04-.82,1.05-1.75,1.93-2.5.7-.6,1.3-1.1,1.5-1.63.17-.41.19-.89.21-1.36.02-.39.03-.81.13-1.15.07-.24.25-.48.44-.72.21-.28.44-.57.55-.93.09-.29.09-.6.09-.91,0-.27,0-.52.07-.72.12-.33.32-.65.53-1,.16-.25.31-.51.44-.78.18-.36.31-.71.44-1.05.12-.34.24-.66.39-.92.28-.55.67-.98,1.05-1.41.52-.57,1.04-1.17,1.3-1.98.22-.75.28-1.77.35-2.75.04-.6.08-1.24.16-1.77.03-.19.13-.42.24-.63.12-.24.23-.47.26-.71.05-.43,0-.81-.06-1.14-.06-.4-.09-.66.02-.85.22-.4.57-.59,1.09-.59,1.33,0,3.14,1.22,3.73,1.7.41.34.78.81,1.17,1.33.39.51.8,1.04,1.3,1.47.43.37.89.7,1.34,1.02.53.37,1.02.72,1.46,1.12.43.4.72.76,1.08,1.23l.04.05c.13.17.25.35.37.53.27.39.55.78.84,1.03.34.28.76.44,1.17.61.32.13.62.25.83.4.27.18.52.48.78.78.29.33.61.71,1.02,1.02.45.34.92.61,1.39.88.65.38,1.26.72,1.69,1.21.24.28.44.61.66.95.29.48.59.96,1.02,1.38.63.6,1.4,1,2.13,1.38.5.26.98.51,1.38.8.28.2.42.37.58.57l.05.05c.12.14.64.52.72.56.55.36.96,1.07,1.35,1.77.34.59.66,1.15,1.08,1.5.36.31.82.43,1.22.55.31.08.59.16.79.3.44.32.68.71.92,1.09.24.38.48.78.9,1.06.05.03.1.06.15.06.89.19,2.04.59,2.58,1.19.21.23.35.64.51,1.08.15.43.33.93.61,1.35.42.63,1.11,1.15,1.83,1.71.35.27.72.56,1.05.85.19.16.36.36.55.56.24.27.49.54.79.77.3.24.64.39.97.53.32.14.61.27.84.45.28.23.56.57.85.92.29.36.59.71.94,1.05l.18.17c.63.59,1.28,1.2,1.77,1.78.44.53.86,1.12,1.26,1.69.8,1.13,1.54,2.21,2.5,2.71.82.41,3.39,1.23,4.77,1.23.18,0,.33-.01.46-.04,1.62-.32,2.54-2.32,2.48-4.06-.02-.61-.23-1.14-.41-1.62-.13-.32-.24-.63-.26-.87-.02-.4.08-.65.2-.98.17-.44.37-.99.3-1.99-.04-.6-.24-1.17-.43-1.71-.19-.54-.36-1.04-.4-1.59-.04-.56.02-1.21.08-1.9.06-.69.12-1.39.09-2.05-.02-.35-.06-.7-.1-1.02-.06-.49-.12-.96-.07-1.39.05-.4.21-.8.39-1.23.18-.45.37-.92.44-1.41.45-3.65.15-7.76-.17-11.32-.05-.49-.16-1.06-.26-1.6-.13-.62-.25-1.26-.24-1.65.01-.3.17-.68.32-1.03.13-.35.28-.71.35-1.07.17-1.09.1-2.2.04-3.25-.06-.84-.1-1.62-.04-2.4.03-.39.17-.76.31-1.15.15-.42.3-.84.35-1.31.16-1.49.1-3.14.06-4.74-.03-.79-.06-1.62-.06-2.41s.03-1.68.06-2.5c.05-1.64.11-3.34-.06-4.81-.05-.42-.15-.79-.26-1.17-.11-.39-.21-.75-.24-1.13-.03-.49,0-1.01.04-1.5.07-1.02.13-2.07-.32-3.09.94-1.87.88-4.7.81-7.68-.02-.75-.03-1.5-.03-2.25v-.94c.02-3.24-.02-5.43-.66-6.23-.11-.11-.2-.22-.3-.33-.74-.84-1.59-1.8-3.12-1.67-1.52.12-4.19,2.28-4.35,4.35-.04.58.15,1.14.34,1.67.14.4.29.81.32,1.21.06.65-.11,1.28-.3,1.95-.15.56-.31,1.14-.36,1.79-.11,1.36.1,2.66.28,3.81.13.8.24,1.51.23,2.09-.06.03-.12.03-.15.03-.27,0-.61-.27-.95-.53-.19-.15-.39-.31-.6-.44-.63-.38-1.58-.91-2.63-1.17-1.22-1.27-2.69-2.17-4.25-3.11l-.55-.34c-1.01-.61-2.09-1.14-3.15-1.65-.76-.37-1.55-.75-2.32-1.16-.82-.46-1.63-.95-2.41-1.45-1.02-.64-2.09-1.3-3.21-1.87-.34-.17-.69-.33-1.04-.5-.64-.3-1.3-.62-1.91-.97-.39-.23-.76-.52-1.16-.82-.48-.37-.97-.74-1.5-1.02-.48-.24-.99-.36-1.48-.48-.42-.09-.82-.19-1.18-.35-.68-.31-1.3-.81-1.9-1.27-.54-.43-1.09-.87-1.71-1.2-.57-.3-1.2-.56-1.81-.83-.5-.21-1.03-.43-1.5-.67-.37-.18-.77-.41-1.16-.63-.78-.44-1.58-.9-2.23-1.05-.34-.08-.76-.06-1.15-.02-.32.03-.61.05-.86,0-.59-.1-1.24-.45-1.87-.79-.35-.19-.68-.36-1.01-.5-.38-.16-.75-.35-1.12-.54-.66-.34-1.3-.65-1.92-.81-.31-.08-.61-.09-.81-.09-.13,0-.25,0-.37,0-.11,0-.22,0-.33,0-.26,0-.43-.02-.58-.08-.35-.13-.8-.36-.85-.66-.1-.52.78-1.32,1.37-1.85.17-.16.32-.31.46-.44.22-.22.48-.46.74-.7.54-.51,1.11-1.04,1.44-1.48.21-.28.34-.55.46-.82.11-.23.21-.46.37-.66.64-.84,1.56-1.24,2.88-1.24,1.11,0,2.32.29,3.46.57.3.07.62.14.95.21.59.13,1.21.26,1.64.43.42.16.79.4,1.14.63.44.29.88.59,1.39.7.34.07.73.11,1.22.11.31,0,.64-.01.97-.03.32-.01.64-.03.95-.03.48,0,.84.04,1.15.11.4.1.76.35,1.11.6.35.24.69.47,1.06.55.42.09.94.06,1.42.02.41-.04.86-.06,1.25,0,.51.06,1.09.29,1.66.49.32.11.62.23.91.32.42.12.82.19,1.21.26.38.05.74.12,1.11.23.22.07.44.21.68.36.29.17.61.37.98.47.44.13.93.21,1.39.29.39.06.76.13,1.11.21.42.11.82.25,1.24.41.39.15.8.3,1.22.41.57.16,1.18.21,1.77.26.57.05,1.11.09,1.51.23.43.14.94.39,1.47.65.69.33,1.47.72,2.33,1,.61.2,1.24.46,1.85.71.76.31,1.48.6,2.14.79.72.2,1.38.04,2,.17.4.08.75.21,1.08.35.45.17.88.34,1.36.34.13,0,.25,0,.37-.03,1.08-.2,1.96-1.45,1.99-2.37.06-1.6-1.51-2.7-2.65-3.5l-.19-.13c-2.13-1.49-3.02-2.11-5.71-2.9-.33-.1-.68-.23-1.01-.36-.51-.19-1.04-.4-1.52-.48-.24-.04-.5-.02-.76,0-.24.03-.5.05-.69,0-.34-.09-.67-.27-1.02-.46-.35-.2-.72-.41-1.13-.53-.56-.15-1.11-.19-1.64-.22-.58-.04-1.13-.08-1.63-.26-.51-.19-1.01-.56-1.48-.93-.52-.39-1-.76-1.52-.9-.32-.09-.74-.07-1.12-.03-.27.03-.5.06-.74.02-.48-.08-.98-.33-1.46-.59-.41-.21-.85-.43-1.3-.55-.6-.17-1.25-.31-1.88-.44l-.3-.06c-1.73-.36-3.21-.8-4.64-1.23-1.09-.32-2.13-.64-3.28-.91-.7-.17-1.47-.31-2.22-.45-.37-.06-.74-.14-1.11-.21-.38-.08-.79-.18-1.19-.29-.66-.17-1.29-.33-1.83-.38-.42-.04-.84.03-1.23.09-.38.06-.73.12-1.07.07-.74-.09-1.39-.44-2.08-.81-.4-.22-.82-.44-1.28-.64-1.3-.54-2.86-.78-4.37-1.02-.34-.06-.68-.11-1.01-.16-.59-.1-1.17-.13-1.74-.16-.61-.03-1.18-.06-1.72-.17-.38-.08-.76-.31-1.16-.54-.4-.23-.81-.47-1.28-.61-1.51-.46-3.05-.59-4.68-.73-.83-.07-1.69-.15-2.54-.26-.34-.3-.38-1.04-.43-1.75-.05-.66-.09-1.34-.36-1.85C74.14.74,71.89,0,70.15,0,69.13,0,68.28.23,67.66.67c-1,.71-1.13,1.75-1.25,2.77-.07.58-.15,1.17-.38,1.7-.9,2.07-4.87,2.51-8.37,2.89-1.3.15-2.52.28-3.55.5-1.13.23-2.27.69-3.28,1.09-.74.29-1.43.57-2.03.73-.92.25-1.87.31-2.8.38-.81.05-1.65.11-2.47.28-.41.09-.79.28-1.15.46-.3.15-.58.3-.86.37-1.55.42-3.1.62-4.73.82-1.35.17-2.76.35-4.17.66-.54.12-1.1.26-1.67.41-1.2.3-2.44.62-3.57.74-.38.04-.77.01-1.15,0-.48-.03-.96-.05-1.34,0-.75.09-1.49.39-2.21.69-.63.25-1.29.52-1.94.64-.24.04-.49.05-.71.05h-.6c-.36,0-.78.01-1.21.12-.29.08-.56.24-.83.39-.18.11-.36.21-.55.29-1.68.73-3.5,1.35-5.1,1.9-.57.19-1.12.38-1.64.56-2.4.85-4.97,2.02-5.86,4.21-.15.35-.15.71-.15,1.03,0,.19,0,.37-.04.54-.26,1.32-.5,2.12-.86,3.34l-.08.28c-.17.62,0,2.18.23,4.17l.06.44c.04.32.12.61.19.87.08.28.15.51.13.7-.04.56-.31,1.05-.6,1.57-.32.57-.64,1.15-.71,1.9-.08.78.18,2.2.34,2.79.44,1.65,1.28,2,1.9,2,1.24,0,2.57-1.37,3.47-2.51.91-1.17,1.2-2.02,1.56-3.11.07-.2.14-.42.24-.7.57-2.33.35-3.23.14-4.09-.1-.43-.2-.84-.19-1.44,0-.47-.1-.9-.2-1.3-.09-.36-.17-.71-.14-.96.11-.88,1.39-2.72,2.53-3.13.62-.22,1.57-.31,2.57-.41,1.11-.11,2.36-.25,3.52-.57.61-.17,1.22-.55,1.81-.92.53-.33,1.07-.67,1.42-.71.32-.03.66.07,1,.16.31.09.63.17.94.17h.06c.71-.1,2.48-.61,3.21-.85.18-.05.5-.21,1.04-.47.66-.33,1.57-.77,2.28-1.02.37-.13.71-.26,1.05-.38,1.36-.51,2.54-.94,4.29-1.08.23-.02.5,0,.77.02.48.03.95.04,1.27-.03.68-.15,1.28-.48,1.87-.8.6-.32,1.16-.63,1.72-.69.38-.04.76.03,1.18.08.43.06.87.12,1.29.09,1.06-.09,2-.4,2.92-.69.82-.26,1.59-.51,2.42-.62,1.08.6,1.56,1.87,2.05,3.2.28.75.57,1.53.98,2.2.03.05.06.09.11.12.33.25.88.51,1.51.82,1.22.59,3.08,1.48,3.11,2.33.03.72-.46.93-1.65,1.16-.11.02-.22.04-.33.07-.65.14-1.09.24-1.44.33-.67.16-1.01.24-1.82.33-.25.02-.64,0-.98,0-.4-.02-.71-.02-.87,0-.83.16-1.77.58-2.78,1.03-.93.41-1.88.83-2.89,1.13-.7.22-1.44.41-2.16.6-1.37.36-2.78.74-3.99,1.23-.81.33-1.54.82-2.24,1.3-.7.47-1.36.92-2.04,1.18-.33.12-.7.18-1.05.24-.37.06-.74.12-1.1.25-.48.18-.94.52-1.39.83-.39.28-.76.55-1.07.65-.18.06-.47.08-.78.1-.46.03-.99.06-1.52.23-1.21.38-2.51,1.09-3.66,1.72-.99.54-1.93,1.06-2.6,1.24-.29.07-.77.12-1.19.16-.48.05-.9.09-1.15.18-.84.3-1.75,1.08-2.71,1.9-.45.39-.92.8-1.37,1.14-.9.67-2,1.15-3.06,1.59-.94.41-1.9.82-2.7,1.37-.18.12-.39.24-.62.36-.18.09-.35.19-.52.28-2.18,1.32-4.98,4.04-4.66,5.54.04,1.16-.11,2.29-.26,3.39-.2,1.54-.41,3.13-.09,4.78-.09.28-.22.48-.36.69-.22.34-.47.73-.56,1.36-.18.82-.03,5.32,1.33,7.29.41.58.89.93,1.45,1.02.06,0,.13,0,.19,0,1.37,0,3.44-2.09,4-2.82.37-.48,1.28-2.04,1.4-2.66.13-.63.08-1.25.03-1.85-.04-.46-.08-.91-.02-1.31.04-.31.17-.64.3-1,.14-.36.28-.74.35-1.13.09-.49.13-.95.18-1.39.09-.95.19-1.76.59-2.42.16-.26.49-.5.84-.76.44-.32.94-.69,1.3-1.21.27-.4.42-.85.56-1.23.15-.43.27-.8.51-.98.19-.15.52-.23.87-.3.35-.08.7-.16,1.04-.32.42-.2.82-.48,1.2-.77.36-.26.74-.52,1.12-.71,1.78-.91,3.1-1.84,4.56-3.22.24-.23.47-.46.69-.69.43-.46.8-.85,1.2-1.05.33-.17.74-.23,1.15-.31.44-.07.91-.14,1.32-.35.46-.23.8-.59,1.12-.93.28-.3.57-.61.95-.84,1.81.04,2.84-.83,3.74-1.59.43-.36.83-.7,1.3-.94.37-.19.92-.31,1.5-.44.46-.1.94-.2,1.41-.36.52-.18.86-.35,1.16-.5.63-.31,1.08-.53,2.83-.47.05,0,.1,0,.15-.02.42-.16.76-.42,1.11-.66.37-.28.73-.54,1.17-.66.19-.05.46-.03.76,0,.34.04.72.07,1.03,0,.47-.1.92-.36,1.39-.64.67-.4,1.39-.8,2.09-.68.14.03.28-.02.38-.12.83-.89,1.91-1.29,2.85-1.64.22-.09.44-.17.63-.25l.41-.17c1.39-.58,3.5-1.46,5.07-1.46h.13c.31.01.63.12.96.23.44.15.9.31,1.4.27.67-.06,1.28-.4,1.87-.72.63-.35,1.22-.69,1.87-.69.35,0,.69.1,1.04.31.41.37.5,1.24.58,2.08.04.38.07.78.15,1.16.09.45.24.89.41,1.31.19.5.37.97.41,1.46.1,1.15.05,2.42,0,3.76-.07,1.44-.13,2.92,0,4.34.04.4.15.78.26,1.14.12.4.24.77.23,1.12,0,.31-.13.68-.24,1.04-.11.36-.22.72-.26,1.08-.24,2.59-.24,5.65,0,8.02.05.45.2.88.34,1.29.15.4.28.79.32,1.17.13,1.33.13,2.78,0,3.88-.03.24-.14.57-.27.9-.15.42-.33.9-.39,1.41-.28,2.33.17,4.49,1.2,5.64.66.75,1.57,1.08,2.58.95,1.27-.17,1.68-1.3,2.15-2.6.14-.42.3-.84.49-1.28.13-.31.32-.6.49-.88.33-.52.67-1.07.7-1.73.02-.4-.1-.77-.23-1.18-.11-.33-.23-.66-.27-1.04-.13-1.18.13-2.2.37-3.1.15-.58.29-1.14.3-1.65,0-.52-.14-.99-.28-1.44-.09-.32-.19-.63-.22-.92-.07-.72.06-1.37.2-2.13.12-.6.25-1.28.29-2.09.05-.83-.05-1.85-.13-2.85l-.03-.36c-.06-.71-.13-1.46-.21-2.23-.22-2.15-.44-4.37-.44-6.49,0-.67.08-1.36.17-2.03.08-.64.16-1.31.16-1.94,0-1.46.13-2.13.34-3.24.04-.24.1-.51.15-.81l.1-.56c.17-.94.25-1.47.46-1.7.2-.23.69-.34,1.59-.54.39-.09.74-.18,1.06-.25,1.4-.33,2.25-.53,3.73-.56.29.12.54.32.82.56.29.25.63.52,1.06.72.36.17.76.28,1.13.38.61.17,1.18.32,1.56.7.08.08.19.13.3.12h.08c1.51,0,2.84.78,4.02,1.47.52.31,1.02.59,1.5.8.33.15.65.22.94.29.27.05.5.11.69.2.65.32,1.18.76,1.7,1.18.76.62,1.46,1.19,2.39,1.33.47.07.98-.01,1.4-.1.35-.06.69-.12.89-.08.35.08.61.31.94.6.25.22.54.47.92.69.31.16.68.25,1.03.34.34.08.69.17.96.31.56.3,1.1.62,1.62.94.63.39,1.23.75,1.86,1.05.35.18.71.35,1.05.51.91.43,1.76.84,2.56,1.29.48.27.87.57,1.29.89l.31.25c.66.49,1.34.87,2,1.25.53.3,1.02.58,1.48.9.38.26.73.61,1.1.97.44.43.89.87,1.4,1.19.35.21.72.33,1.09.46.32.11.63.21.91.38.41.23.77.58,1.16.97.35.34.7.69,1.12.99.64.44,1.27.85,1.88,1.24,1.18.78,2.3,1.5,3.38,2.37.28.22.55.47.83.7.56.5,1.15,1.02,1.71,1.32.43.24.88.33,1.28.41.32.06.63.13.88.26,2.01,1.05,3.17,3.34,3.41,5.13.07.56.05,1.15.02,1.73-.02.46-.05.92-.02,1.38.05.92.21,1.82.37,2.69.12.68.24,1.33.3,1.95.17,1.71.07,3.39,0,5.03-.09,1.69-.18,3.44,0,5.22.06.61.11,1.13.1,1.73,0,.31-.06.53-.13.8-.04.2-.1.41-.14.67-.13.87.04,1.75.22,2.69.13.7.27,1.44.27,2.17,0,.55-.09,1.11-.18,1.71-.14.93-.28,1.89-.15,2.96.04.32.15.62.26.91.1.25.19.49.24.75.11.69.18,1.58.26,2.52l.06.75c.04.51-.02.98-.09,1.44-.05.37-.1.71-.08,1.03.05.83.24,1.6.4,2.29.19.76.34,1.41.27,1.92-.14.96-.86,1.77-1.28,1.79-.5,0-1.59-1.14-2.31-1.88-.42-.44-.82-.86-1.17-1.17-.5-.43-1.26-1.05-2.04-1.52-.37-.22-.77-.42-1.12-.59-.47-.23-.91-.44-1.09-.65-.25-.3-.43-.78-.59-1.24-.2-.57-.4-1.12-.78-1.45-.46-.41-1.04-.54-1.59-.67-.41-.09-.78-.19-1.11-.37-.46-.26-.8-.77-1.2-1.36-.32-.49-.69-1.04-1.19-1.55-.43-.44-.96-.77-1.43-1.05-.42-.26-.8-.5-1.04-.75-.22-.25-.39-.59-.56-.95-.21-.43-.43-.88-.78-1.21-.35-.35-.82-.56-1.26-.77-.38-.17-.77-.34-1.08-.59-.44-.34-.84-.83-1.24-1.31-.39-.47-.78-.95-1.23-1.32-.66-.55-1.41-1.03-2.13-1.51-.91-.58-1.85-1.2-2.63-1.95-.33-.32-.61-.72-.9-1.13-.33-.47-.66-.96-1.09-1.35-.72-.65-1.61-1.23-2.47-1.79-1.15-.75-2.34-1.53-3.1-2.46-.29-.35-.53-.74-.76-1.12-.39-.62-.75-1.2-1.3-1.59-.6-.43-1.29-.63-1.95-.83-.5-.15-.98-.3-1.39-.52-.59-.32-1.06-.81-1.56-1.32-.37-.4-.76-.8-1.2-1.13-1.59-1.17-4.59-3.44-4.62-3.46-.09-.08-2.39-1.85-4.54-1.85-.34,0-.66.04-.95.13-1.02.3-1.72,1.97-2.35,3.67l-.08.22c-.27.73-.48,1.46-.68,2.37-.09.44-.13.87-.16,1.3-.03.46-.06.9-.17,1.32-.27,1.09-.86,2.05-1.43,2.99-.51.84-1,1.63-1.21,2.46-.11.42-.11.85-.11,1.26,0,.33,0,.64-.06.91-.52,2.35-1.94,4.62-3.08,6.43l-.34.54c-.29.46-.48.94-.67,1.41-.16.39-.31.77-.49,1.08-.2.31-.5.62-.8.91-.23.22-.46.45-.65.7-.17.22-.31.44-.43.65-.29.5-.46.77-.82.83-1.54-.76-2.42-2.8-3.26-4.78-.67-1.59-1.37-3.23-2.44-4.25-.74-.71-.76-1.4-.78-1.81v-.08c-.05-1.07-.28-1.44-.6-1.85-.14-.17-.26-.32-.35-.64-.13-.42-.24-.86-.33-1.28-.11-.48-.21-.9-.34-1.22-.19-.48-.48-.94-.77-1.39-.29-.43-.56-.85-.71-1.26-.28-.73-.5-1.51-.7-2.25-.27-.95-.55-1.94-.95-2.88-.78-1.79-1.72-3.75-3.06-4.2-.5-.17-1.2-.26-1.97-.26s-1.48.08-2.08.25c-.52.15-1.04.57-1.65,1.05-.36.28-.72.57-1.11.83-.41.28-.86.51-1.29.74-.57.3-1.1.59-1.54.93-.38.29-.71.6-1.02.91-.42.39-.8.77-1.26,1.05-.56.34-1.32.64-2.06.93-1.05.4-2.13.82-2.79,1.44-.43.39-.75.93-1.09,1.5-.36.61-.72,1.22-1.21,1.61-.51.41-1.2.75-1.92,1.1-.81.39-1.65.81-2.37,1.37-.45.36-.78.78-1.06,1.15-.25.33-.48.62-.75.83-.72.55-1.59,1.02-2.35,1.27-.35.11-.71.15-1.07.2-.48.06-.94.1-1.33.33-.65.38-.93,1.06-1.17,1.66-.17.41-.33.8-.57,1.05-.3.3-.77.47-1.26.67-.54.21-1.08.42-1.52.8-.41.37-.68.84-.94,1.32-.26.46-.5.9-.84,1.13-.24.17-.54.24-.85.32-.4.1-.82.21-1.18.54-.41.36-.62.83-.82,1.28-.16.34-.31.66-.53.89-.28.31-.67.53-1.09.77-.35.2-.71.41-1.03.69-.67.59-1.37,1.42-2.05,2.22-.87,1.04-1.96,2.32-2.48,2.32-1.65-.76-2.74-1.27-2.7-3.06.02-.46.26-.75.7-1.2.39-.42.83-.89,1.1-1.64.09-.26.06-.56.03-.88-.03-.27-.06-.56-.01-.84.04-.27.22-.6.39-.92.18-.34.37-.69.43-1.05.06-.32.04-.69.02-1.04-.02-.28-.03-.57,0-.8.03-.32.11-.6.19-.85.09-.34.19-.62.14-.92-.07-.43-.48-1.13-1.4-2.34l-.08-.11c-.42-.56-1.13-1.49-1.98-1.7-.22-.05-.44-.07-.67-.07-.62,0-1.15.2-1.61.38-.2.07-.39.15-.57.2-.18.05-.38.08-.6.11-.69.1-1.62.24-1.85,1.36v.05c-.06.62.25,1.11.52,1.53.23.37.45.72.46,1.15.02.61-.32,1.22-.68,1.87-.35.63-.7,1.28-.8,2.03-.24,1.77.31,2.72.84,3.65.24.41.49.84.67,1.34.06.17.1.41.14.69.05.28.09.6.18.94.28,1.06.44,2.06.62,3.23.06.39.13.78.2,1.2l.06.35c.16.96.33,1.94.27,2.49-.06.46-.29.9-.54,1.36-.27.5-.55,1.02-.62,1.61-.04.37.07.73.18,1.04.07.25.15.46.15.65,0,.29-.12.63-.24.97-.12.33-.23.67-.26.99-.05.62.01,1.27.07,1.91.04.47.09.95.09,1.43,0,.35-.04.73-.09,1.11-.06.5-.11.97-.07,1.39.04.43.19.84.35,1.23.16.43.32.82.31,1.21,0,.43-.17.96-.34,1.52-.32,1.02-.67,2.19-.35,3.41-.12.26-.28.5-.46.76-.36.54-.77,1.14-.84,2.05-.09,1.12.45,2.13.97,3.09.19.35.39.71.55,1.08.11.23.21.47.3.71.5,1.22,1.03,2.48,2.42,2.51.71,0,1.44-.38,2.11-1.1,1.19-1.29,2-3.42,1.92-4.48,0,0,0-.02,0-.04-.05-.27-.14-.55-.23-.82-.13-.37-.25-.75-.26-1.09,0-.02.04-.06.06-.09.08-.1.2-.25.26-.48.06-.23.04-.51.02-.74,0-.11-.02-.23,0-.3.04-.37.13-.8.21-1.15.08-.4.12-.58.12-.72,0-.33-.1-.65-.19-.93-.08-.26-.15-.5-.14-.68.02-.24.05-.49.07-.76.06-.6.12-1.21.14-1.66.07-.54-.06-1.02-.18-1.49-.14-.54-.28-1.05-.16-1.65.39-.56.66-1.07.89-1.5.41-.77.72-1.37,1.57-2.07.07-.06.12-.14.15-.23l.06-.29c.19-.88.35-1.64.73-2.43.24-.49.65-.94,1.06-1.38.4-.44.82-.9,1.09-1.42.17-.32.22-.68.28-1.02.05-.3.09-.59.21-.79.56-1.02,1.92-2.31,3.02-3.34l.37-.36c.15-.14.3-.27.44-.4.49-.46.96-.89,1.42-1.45.24-.3.46-.61.68-.92.32-.45.62-.88.94-1.19.99-.98,2.28-1.7,3.52-2.41.57-.32,1.16-.66,1.7-1,.72-.48,1.26-1.18,1.78-1.85.1-.13.2-.26.31-.39.5-.65,1.06-1.24,1.78-1.94,3.85-3.7,7.37-6.4,10.47-8.03.27-.14.56-.27.85-.4.66-.31,1.28-.6,1.72-.98.48-.43.84-.99,1.18-1.53.56-.87,1.09-1.7,2.13-2.02.09-.03.25,0,.44.02.32.05.77.08,1.18,0,.62-.15,1.11-.49,1.5-.77.26-.19.54-.38.7-.38h0c.7.02,2.04,1.24,2.45,2.08.17.34.24.77.33,1.21.08.42.16.85.32,1.24.16.38.43.82.7,1.25.17.28.34.54.47.78.17.32.32.68.47,1.03.17.41.32.8.53,1.14.35.58.86,1.02,1.35,1.46.43.39.84.75,1.14,1.2.68,1,1.24,2.15,1.83,3.37.55,1.13,1.11,2.31,1.8,3.39.65,1.02,1.32,1.97,2.03,2.98l.13.17c.33.46.71.91,1.07,1.33.48.56.94,1.08,1.21,1.6.12.21.17.46.22.73.06.28.12.59.27.9.15.3.39.57.64.85.19.23.4.46.54.68.15.25.28.54.41.8.19.4.37.79.62,1.07.29.32.67.57,1.04.79.3.18.58.35.8.56.54.49,1,1.13,1.49,1.8.45.63.91,1.27,1.47,1.83.28.29.61.52.92.74.33.24.64.46.89.73.24.26.45.58.66.9.27.43.53.83.87,1.12.39.31.85.5,1.31.67.39.15.75.3,1.02.5.75.57,1.37,1.38,2.04,2.24.54.69,1.09,1.4,1.72,2.02.65.63,1.42,1.14,2.16,1.65.66.44,1.28.85,1.81,1.33.42.38.78.77,1.17,1.18.45.49.92.99,1.49,1.47.46.39.87.83,1.3,1.3.42.46.85.92,1.33,1.34.04.03.07.06.11.07,1.43.58,2.67,1.13,3.25,2.28.17.34.25.74.34,1.16.09.48.2,1,.45,1.49-1.49,1-2.35,2.34-3.28,4.24-.78,1.61-1.17,2.66-1.2,3.31-.02.44.13.88.28,1.3.13.36.24.71.22.99-.03.36-.2.72-.37,1.11-.2.43-.4.86-.45,1.36-.12,1.09.02,2.06.14,2.92.19,1.38.27,2.21-.4,2.84-.72.09-1.55-.2-2.4-.51-.53-.18-1.07-.38-1.62-.5-.33-.07-.63-.07-.93-.07-.3,0-.59,0-.86-.09-.36-.11-.69-.29-1.06-.48-.34-.19-.69-.38-1.08-.51-.29-.09-.59-.16-.87-.23-.88-.2-1.64-.39-1.98-1.11,0-.21,0-.44,0-.66.01-.68.03-1.37-.2-1.9-.05-.11-.13-.19-.24-.23-.33-.12-.68-.34-1.04-.59-.69-.45-1.48-.97-2.45-.97-.17,0-.35.01-.52.05-.98.19-1.58,1.33-2.17,2.43-.37.7-.75,1.41-1.18,1.81-.47.42-1.07.68-1.84,1.02-.17.07-.34.15-.52.23-.21.09-.42.19-.62.28-.63.3-1.23.57-1.78.68-.28.06-.54.1-.76.15-1.72.34-2.16.42-3.61,1.66-2.65.05-4.61.81-6.87,1.69l-.39.15c-.32.13-.66.24-.98.35-.87.31-1.69.6-2.26,1.02-1.28.96-3.31,3.8-3.45,5.9-.05.78.15,1.4.59,1.84.55.55,1.54.63,2.45.63.26,0,.51,0,.77-.02.43,0,.84-.02,1.17,0,.09,0,.18-.02.25-.06,1.59-.95,3.45-1.71,5.25-2.44,1.18-.47,2.39-.97,3.48-1.5.42-.21.8-.44,1.17-.66.54-.32,1.04-.63,1.59-.82.27-.09.57-.14.9-.19.41-.07.84-.14,1.26-.31.59-.23,1.11-.56,1.61-.88.6-.39,1.17-.76,1.81-.92,1.24-.3,2.58-.19,4.24.32.1.04.22.03.31-.02.61-.3,1.24-.43,1.91-.43,1.11,0,2.18.39,3.22.76.34.13.68.25,1,.36.52.16,1.02.42,1.54.69.69.36,1.4.73,2.28.96.29.08.63.06.96.02.19-.02.37-.06.55-.02.2.04.38.17.59.33.23.16.49.35.83.47.39.15.82.21,1.2.28.35.06.7.11.91.2.89.42,2.22,1.72,2.41,2.52.52,2.26-.76,4.72-1.87,5.14,0,0-.13.03-.64.03-.95,0-2.15-.11-2.39-.2-.21-.08-.41-.28-.63-.51-.26-.27-.55-.57-.97-.79-1.11-.6-2.43-.69-3.83-.78-1.01-.06-2.06-.13-3.02-.41-.45-.13-2.23-1.28-2.42-1.49-.13-.19-.21-.52-.3-.84-.19-.7-.42-1.57-1.25-1.8-.2-.06-.4-.08-.59-.08-1.14,0-2.03.9-2.82,1.7-.42.43-.82.83-1.21,1.06-.22.13-.48.17-.78.2-.34.04-.72.09-1.15.27-.45.19-.83.51-1.25.87-.43.36-.88.74-1.39.94-.2.08-.5.12-.77.16-.29.04-.58.08-.85.16-.98.31-1.72.72-2.43,1.09-.26.14-.51.29-.78.42-.28.14-.6.24-.91.32-.33.1-.65.2-.92.34-.91.51-1.46,1.15-1.95,1.71-.5.59-.91,1.05-1.59,1.23-.07.02-.36.01-.65-.01-.39-.03-.82-.05-1.13,0-.97.18-2.43,1.06-3.14,1.56-1.04.73-2.04,1.99-1.93,3.17.04.47.28,1.11,1.17,1.52.5.23,1.13.13,1.69,0,.37-.09.72-.18,1.08-.13.41.06.69.24.98.46.36.24.77.54,1.39.54.08,0,.17-.02.24-.07.98-.68,1.99-1.04,3.07-1.43.69-.24,1.4-.5,2.15-.86.46-.22.98-.38,1.48-.54.56-.18,1.13-.36,1.67-.63.47-.22.9-.53,1.31-.82.35-.25.67-.48,1.01-.67.51-.28,1.05-.47,1.61-.67.39-.14.78-.29,1.17-.47.35-.15.66-.35.96-.55.38-.25.74-.49,1.13-.59.2-.06.49-.06.8-.07.32,0,.65-.02.98-.08.24-.05.46-.11.68-.18.32-.09.61-.18.85-.15.41.04.8.31,1.22.59.48.33.98.65,1.58.72.48.06.95-.06,1.39-.17.39-.09.74-.19,1.09-.15.26.02.56.18.88.35.37.18.79.4,1.25.47.28.05.63.03.94,0,.26-.02.52-.04.69,0,.56.13,1.1.42,1.68.74.86.48,1.75.96,2.85.96.14,0,.28,0,.42-.02,2.28,1.58,4.48,4.4,3.34,7.34-.19.48-.59.74-1.11,1.04-.13.08-.25.16-.39.24-.13.08-.26.17-.39.25-.54.38-1.1.76-1.6.83-.2.04-.4.06-.63.06-.76,0-1.56-.19-2.41-.38-.87-.2-1.76-.41-2.65-.41-.43,0-.83.05-1.21.15-.22.05-.44.13-.68.21-.59.2-1.26.43-2.1.43-.25,0-.5-.02-.76-.06-.21-.03-.48-.09-.79-.18-.7-.18-1.58-.4-2.64-.4-.55,0-1.11.07-1.62.18-.71.09-1.36.15-1.99.15-.94,0-1.68-.11-2.32-.2-.92-.13-1.8-.23-2.67-.05-.02,0-.04.02-.06.02-.76.29-1.65.47-2.65.54-.31-.04-.48-.12-.73-.24-.32-.14-.71-.32-1.5-.49-.24-.06-.48-.08-.73-.08-.69,0-1.39.18-2.13.37-.5.13-1.02.27-1.59.35-.52.09-1.03.1-1.53.1-.69,0-1.36.02-1.89.28-1.07.51-2.49,3.49-2.55,4.65-.02.35.1.69.24,1.06.13.37.26.74.26,1.11,0,.32-.13.68-.24,1.03-.15.43-.3.88-.26,1.32.05.53.28,1.02.51,1.51.21.43.42.87.48,1.32.12.84-.04,1.72-.17,2.51-.11.65-.22,1.27-.16,1.78.07.56.35,1.01.62,1.46.24.4.48.78.54,1.2.03.22-.02.44-.08.7-.06.28-.15.61-.08.96.07.43.26.83.43,1.2.17.37.33.72.39,1.09.07.49,0,1.02-.08,1.59-.08.61-.17,1.24-.08,1.88.06.49.26.92.46,1.33.15.33.3.67.38,1,.11.54.06,1.13.02,1.77-.05.58-.09,1.19-.02,1.83.05.43.2.83.36,1.21.14.32.26.64.3.95.04.3.02.64,0,.99-.02.37-.05.75,0,1.15.04.41.17.79.28,1.13.11.32.2.6.2.81,0,.37-.11.76-.23,1.17-.13.47-.27.95-.27,1.48,0,.44.09.88.19,1.3.09.42.17.8.15,1.14-.04.57-.29,1.2-.52,1.79-.21.53-.41,1.03-.46,1.5-.21,1.67.12,2.95.39,3.96.12.44.23.87.28,1.26.1.82.1,2.13,0,3.04-.08.71-.37,1.77-.63,2.35-.2.43-.57.87-.96,1.34-.62.73-1.26,1.48-1.39,2.41-.07.52.06,1.02.17,1.52.1.41.19.8.16,1.14-.03.28-.23.63-.46,1.04-.23.39-.48.82-.67,1.34-.12.33-.16.69-.19,1.03-.03.29-.06.58-.14.77-.11.3-.3.57-.5.86-.28.41-.58.83-.68,1.37-.07.39-.03.74,0,1.06.03.28.06.52,0,.72-.07.29-.2.43-.39.63-.29.32-.65.72-.93,1.68-.16.56-.62,1.62-1.15,2.85-.9,2.07-2.02,4.63-2.64,6.9-.2.72-.28,1.3-.35,1.82-.07.52-.13.96-.3,1.45-.06.17-.12.39-.19.6-.1.33-.22.7-.29.85-.2.4-.54.74-.9,1.11-.4.4-.82.83-1.08,1.36-.16.34-.26.73-.35,1.11-.05.21-.1.42-.16.6-.62,1.89-.52,5.28.55,6.81.82,1.18,3.44,1.84,4.97,1.84.47,0,.96-.11,1.48-.24.49-.12,1-.23,1.52-.26.38-.02.8-.03,1.29-.03,1.02,0,2.13.04,3.3.08,1.17.04,2.39.08,3.51.08,1.69,0,2.87-.09,3.71-.31,1.2-.3,1.56-.37,2.47-.3.47.04.94.16,1.45.3.49.13.98.27,1.54.34.43.06.9-.04,1.39-.15.32-.07.66-.14,1.02-.17l.17-.02c1.06-.1,2.37-.23,3.62-.32,1.19-.08,2.03.1,2.84.28.41.09.8.17,1.21.21.41.05.78.07,1.12.07.81,0,1.35-.13,1.91-.27.41-.1.85-.2,1.41-.28h.05c.94,0,2.35.49,3.38.85.67.22,1.21.41,1.54.44.37.05,1.39.06,1.96.06,1.88,0,4.63-.07,6.55-.21.91-.07,1.54-.28,2.1-.47.77-.25,1.42-.46,2.6-.35.39.03.76.14,1.13.24.54.16,1.11.32,1.76.26.42-.04.95-.13,1.53-.22.87-.13,1.87-.28,2.77-.34.65-.05,1.18.03,1.76.11.52.08,1.06.16,1.74.16.28,0,.56-.01.85-.04.36-.04.76-.02,1.14-.02.21,0,.42,0,.64.02.68,0,1.28-.02,1.85-.04.53-.02,1.03-.03,1.54-.03.6,0,1.12.02,1.64.07.25.02.51.12.79.23.33.12.68.26,1.06.27h.04c.31,0,.69-.1,1.06-.19.27-.06.55-.14.76-.15.5-.04,1.07-.06,1.78-.06.55,0,1.12.01,1.69.02.56.02,1.13.02,1.67.02,1.05,0,1.85-.04,2.5-.15.39-.06.73-.24,1.06-.4.34-.17.69-.35,1.09-.43.67-.13,1.34-.16,1.99-.18.89-.05,1.66-.08,2.24-.35,1.11-.52,2.28-2.07,2.53-2.71.11-.27.13-.63.16-1.08.03-.48.06-1.02.2-1.59.09-.41.24-.75.38-1.06.13-.29.24-.55.28-.81.34-2.01.27-4.43.2-6.99-.05-1.78-.11-3.62-.03-5.45.04-.9,0-1.81-.02-2.69-.04-1.13-.08-2.2.02-3.23.02-.24.08-.5.15-.75.09-.36.18-.73.18-1.11,0-.39-.1-.76-.19-1.13-.07-.26-.13-.5-.15-.72-.04-.53.02-1.13.07-1.72.05-.52.1-1.06.09-1.56,0-.32-.06-.6-.1-.86-.05-.28-.09-.53-.07-.74.05-.48.15-1.08.26-1.72.22-1.27.44-2.59.34-3.49-.09-.75-.26-1.86-.61-2.9-.03-.11.03-.5.06-.7.02-.16.04-.3.06-.42.02-.28.12-.58.24-.93.12-.36.25-.76.32-1.21.05-.34-.02-.73-.08-1.08-.06-.31-.11-.65-.09-.92.02-.18.11-.39.21-.61.11-.25.24-.53.29-.85.06-.37.03-.76,0-1.13-.02-.34-.05-.69,0-1.04.06-.44.17-.83.27-1.21.14-.47.26-.92.22-1.35-.13-1.6-1.31-3.95-2.57-4.49-.47-.2-1.07-.22-1.69-.24-.46-.02-.92-.03-1.36-.12-.59-.12-1.21-.28-1.81-.45-1.04-.28-2.02-.55-2.89-.55-.44,0-.84.09-1.22.19-.47.11-.9.21-1.36.14-.42-.06-.8-.31-1.21-.59-.41-.28-.84-.56-1.37-.72-.34-.09-.74-.09-1.17-.1-.35,0-.71,0-1.02-.07-.26-.04-.53-.14-.8-.24-.38-.13-.74-.25-1.1-.26-.39,0-.78.14-1.15.28-.31.12-.6.22-.85.23-.25,0-.54-.11-.85-.23-.35-.12-.71-.25-1.09-.27-.57-.04-1.15.02-1.7.07-.43.04-.87.09-1.3.09-.66,0-1.36-.07-2.1-.16-.6-.07-1.22-.14-1.85-.17-.73-.04-1.49.03-2.21.09-.78.07-1.53.12-2.06.07-.32-.04-.63-.17-.96-.3-.43-.17-.87-.36-1.42-.37-.41,0-.83.13-1.23.26-.36.12-.74.23-1.1.24-.31,0-.71-.09-1.09-.18-.29-.06-.56-.13-.81-.15-.21-.02-.43-.06-.62-.08-.65-.1-1.28-.17-1.8-.09-.44.07-.84.32-1.24.54-.36.21-.73.43-1.06.45-.28,0-.77-.14-1.24-.27-.33-.09-.65-.17-.95-.23-1.6-.29-3.46-.61-5.35-.61-.66,0-1.3.04-1.89.11-.37.06-.69.17-1,.28-.34.11-.63.22-.93.22s-.61-.11-.94-.23c-.32-.11-.65-.23-1-.27-.63-.05-1.34-.08-2.18-.08-.78,0-1.58.02-2.35.04-.5.02-.98.03-1.46.04-.68.02-1.35.09-2.01.18-.63.07-1.23.14-1.82.16-.24,0-.5-.05-.77-.09-.42-.07-.87-.13-1.25-.06-.55.1-.98.41-1.36.69-.28.21-.55.4-.82.47-.54.13-1.32.22-2.04.22-.35,0-.68-.02-.93-.06-.7-.12-1.3-.59-2.05-1.18-.18-.14-.38-.3-.58-.46-.07-.57-.25-1.02-.43-1.44-.16-.4-.32-.78-.37-1.25.21-.56.74-.73,1.58-.96.2-.06.4-.12.61-.18.32-.1.61-.22.94-.35.68-.27,1.38-.56,2.11-.61,1.06-.09,2.45,0,3.73.09.91.07,1.85.14,2.75.14,1.4,0,2.5-.18,3.43-.54,1.06.29,2.45.6,4.02.6.59,0,1.2-.04,1.79-.13.35-.06.71-.2,1.04-.34.36-.14.73-.29,1.08-.32.66-.06,1.43,0,2.26.07.55.04,1.12.09,1.66.09.53,0,1.07,0,1.6-.02.81-.02,1.61-.03,2.17.02.3.02.61.12.93.22.46.14.94.3,1.43.28.49-.02.94-.2,1.37-.36.39-.15.76-.29,1.11-.3h.04c.4,0,.82.11,1.26.24.37.1.74.2,1.12.25,1.21.13,2.54.2,4.2.2,1.04,0,2.11-.03,3.15-.06,1.02-.02,2.09-.05,3.13-.05,1.75,0,3.14.07,4.39.23.33.04.64.13.98.23.38.11.76.22,1.18.27.67.06,1.5.03,2.26-.02.81-.05,1.59-.07,2.19,0,.46.06.9.22,1.37.39.57.2,1.17.41,1.81.44.84.03,1.63-.2,2.4-.43.61-.18,1.18-.36,1.78-.4,1.23-.1,2.58.18,3.87.46,1.09.22,2.13.43,3.08.43.31,0,.59-.02.85-.07,1.45-.26,4.93-3.14,4.97-4.7.02-.75-.73-2.4-1.96-2.73-.37-.1-.85-.05-1.34.04-.32.05-.66.12-1.01.12h-.07c-.93-.02-1.88-.14-2.79-.27-1.07-.14-2.08-.27-3.01-.24-.39.02-.77.09-1.13.17-.35.08-.69.15-1.02.16-.34,0-.69-.08-1.08-.16-.33-.07-.67-.14-1.03-.17-.28-.02-.57.03-.86.09-.21.04-.42.08-.6.08h-.04c-1.08-.04-2.27-.28-3.43-.5-1.38-.27-2.81-.54-4.04-.5-.57.02-1.08.11-1.57.2-.6.11-1.18.2-1.66.14-.37-.06-.74-.24-1.11-.42-.4-.19-.82-.38-1.24-.41-.61-.04-1.24.11-1.84.26-.37.1-.72.18-1.04.22-.46-.31-.96-.46-1.57-.46-.32,0-.63.04-.96.08-.48.06-.96.11-1.52.06-.76-.07-1.45-.46-2.12-.84-.63-.34-1.28-.71-1.98-.81-.29-.05-.58-.07-.84-.07-1.52,0-2.3.74-2.99,1.39-.56.51-1.04.96-1.89,1-.36,0-.8-.22-1.26-.45-.52-.26-1.07-.52-1.65-.54h-.09c-.57,0-1.14.2-1.69.41-.54.2-1.09.41-1.62.41h-.07c-.33-.01-.7-.18-1.08-.36-.49-.23-.99-.46-1.58-.46-.48,0-.91.19-1.32.37-.31.13-.59.25-.87.29-.21.02-.42.04-.63.04-.85,0-1.59-.2-2.3-.37-.73-.19-1.43-.37-2.18-.32-.71.05-1.39.32-2.06.58-.7.28-1.37.56-2.07.57-.2,0-.47-.07-.76-.13-.36-.09-.77-.2-1.22-.2-.28,0-.54.05-.8.09-.24.04-.46.09-.64.08-.57-.04-1.13-.13-1.68-.21-.69-.1-1.34-.2-1.98-.2-.33,0-.63.03-.91.09-.65.12-1.15.37-1.6.58-.51.25-.93.45-1.42.4-.51-.06-1.5-.61-1.84-1.13-.39-.57-1.39-3.65-1.42-4.01.09-.75,2.8-2.84,3.6-2.94.31-.04.54.06.84.19.28.12.61.26,1.05.31.91.09,2.27.13,4.05.13,1.87,0,3.56-.05,3.58-.05,0,0,5.99-.26,9.11-.41.5-.02.97-.14,1.43-.26.43-.11.82-.2,1.23-.24.22-.02.47.04.74.08.27.05.54.09.83.09h.06c.38-.01.75-.1,1.1-.17.32-.07.61-.15.89-.16.62-.03,1.29.03,1.93.09.74.07,1.5.13,2.22.07.38-.03.72-.16,1.06-.28.31-.11.61-.22.88-.22h0c.35,0,.72.11,1.11.22.44.13.89.26,1.36.27h.07c.46,0,.91-.09,1.35-.17.48-.1.94-.19,1.35-.16.21.02.42.08.65.15.26.08.54.17.85.18.79.06,1.61,0,2.39-.02.51-.03,1.03-.06,1.54-.06s.93.02,1.32.08c.32.04.61.17.93.3.39.15.78.32,1.24.36,1.25.09,2.85.02,4.34-.06.95-.06,1.95-.1,2.91-.1s1.74.05,2.47.15c.38.06.76.18,1.15.31.55.18,1.11.36,1.72.36.51,0,1.01-.13,1.5-.26.46-.12.89-.23,1.32-.23h.07c.66,0,1.35.11,2.09.23.9.15,1.85.31,2.81.26.37-.02.72-.09,1.07-.17.35-.08.69-.16,1.06-.16h0c.75.02,1.56.13,2.33.25.85.12,1.72.25,2.57.25,1.38,0,2.43-.35,3.31-1.09.08-.06.13-.15.14-.25l.04-.25c.16-1.06.35-2.4-.27-3.35-.7-1.08-5.13-2.22-6.08-2.33-.17-.02-.35-.03-.54-.03-.6,0-1.21.09-1.78.19-.65.11-1.25.2-1.82.17-.41-.02-.84-.19-1.25-.35-.37-.15-.72-.29-1.05-.32-.37-.03-.77.02-1.19.09-.42.06-.85.12-1.29.08-.59-.05-1.23-.19-1.9-.33-.56-.12-1.13-.24-1.72-.32-.4-.06-.8-.13-1.2-.19-.9-.16-1.82-.32-2.67-.32h-.16c-.92.03-1.75.21-2.55.39-.85.19-1.63.35-2.35.28-.31-.03-.69-.13-1.08-.23-.5-.13-1.02-.26-1.52-.3-.6-.06-1.22.05-1.87.18-.44.07-.9.15-1.39.2-.46.04-.93.01-1.36-.02-.56-.03-1.03-.04-1.35.03-.3.07-.6.17-.88.28-.55.19-1.07.36-1.41.26-.83-.24-2.75-.57-3.81-.61-.03,0-.07,0-.1,0-1.03.22-1.9.31-2.81.31-.67,0-1.3-.05-2.02-.11-.73-.06-1.55-.13-2.56-.15-2.43-.06-4.97.07-6.8.16-.52.03-1.06.05-1.65.05-1.06,0-2.11-.05-3.14-.09-.99-.05-2.02-.09-3.01-.09s-1.85.04-2.63.13c-.29.04-.56.11-.81.18-.28.07-.55.15-.8.15-.28,0-.58-.08-.91-.15-.35-.09-.7-.18-1.07-.18-.41,0-.87.09-1.32.19-.31.07-.61.12-.87.15-.2.02-.41.05-.62.08-.46.06-.93.13-1.29.09-.3-.02-.62-.14-.93-.24-.41-.13-.84-.28-1.28-.26-.41.02-.78.19-1.1.33-.39.17-.74.32-1.03.2-.3-.13-.5-.58-.7-1.07-.08-.18-.15-.36-.24-.54-.12-.24-.23-.46-.34-.66-.28-.51-.46-.86-.44-1.28.02-.36.98-2.04,2.19-2.43.11-.03.35-.02.58,0,.3.03.61.06.86,0,.43-.08.8-.24,1.14-.39.3-.14.57-.25.79-.27.71-.04,1.41.13,2.17.31.92.22,1.89.46,2.98.35.39-.04.78-.17,1.2-.32.42-.14.85-.29,1.29-.34.33-.04.7-.02,1.06,0,.46.03.93.05,1.27,0,.35-.06.68-.14,1-.22.39-.1.74-.2,1.07-.22.51-.04.99.04,1.52.12.56.09,1.14.18,1.82.15.32,0,.65-.09.98-.17.33-.09.68-.17,1-.17.5,0,1.03.11,1.58.23.59.14,1.19.26,1.82.26h.06c.64,0,1.28-.13,1.9-.25.63-.13,1.22-.24,1.81-.24h.08c.69,0,1.41.13,2.09.25.74.12,1.5.24,2.26.24h.12c.47,0,.92-.09,1.35-.17.43-.08.85-.15,1.28-.15.26,0,.53.07.82.15.31.08.64.18,1.03.18s.76-.09,1.12-.17c.34-.08.65-.15.99-.15h0c.31,0,.65.07,1.02.15.36.08.74.15,1.13.17.57.03,1.13-.03,1.68-.08.45-.05.88-.09,1.3-.09h.16c.7.02,1.39.23,2.07.43.69.2,1.34.4,1.98.4h.1c.6-.02,1.13-.25,1.56-.43.28-.12.55-.23.72-.23h0c.47.02,1.01.21,1.58.43.67.26,1.42.55,2.26.56.39,0,.78-.09,1.15-.17.29-.07.56-.13.84-.16,1-.09,2.24-.13,3.77-.13s3.04.04,4.41.07c1.16.04,2.26.06,3.14.06h.04c.46,0,.93-.02,1.39-.02.44-.02.87-.03,1.27-.03.46,0,.8.02,1.09.05.36.05.71.15,1.05.25.48.14.98.29,1.52.25,1.67-.14,4.19-1.92,4.81-3.39.14-.33.18-.71.22-1.11.03-.31.06-.62.13-.95.08-.35.24-.74.37-1.12.2-.52.41-1.07.46-1.57.04-.37.02-.72-.02-1.05-.03-.38-.06-.72,0-1.07.11-.55.44-1.15.8-1.79.54-.98,1.14-2.09,1.03-3.28-.07-.8-.52-1.39-.96-1.96-.46-.6-.89-1.17-.86-1.95.02-.49.5-1.17.96-1.84.47-.66.91-1.3,1.02-1.9.31-1.71.03-3.57-.22-5.22-.14-.92-.27-1.79-.27-2.45ZM101.79,176.68c.2-.31.42-.65.55-1.11.13-.46.13-.87.13-1.23,0-.52.01-.81.26-1.07.23-.23.58-.32,1.25-.32.17,0,.34,0,.52,0,.19,0,.39,0,.59,0,.41,0,.74-.02,1.04-.07.81-.14,1.43-.61,2.04-1.05.44-.32.87-.63,1.33-.79.21-.07.45-.11.8-.11.15,0,.31,0,.47,0,.17,0,.34.02.51.02.31,0,.57-.02.8-.07.59-.11,1.13-.4,1.65-.68.55-.3,1.07-.57,1.61-.63.51-.06.99.1,1.51.28.5.18,1.07.36,1.76.38.36,0,.91-.17,1.48-.34.48-.15,1.02-.31,1.29-.31h0c.61.03,2.26.53,3.33.96.32.13.62.35.98.62.46.35.97.73,1.66,1.02,1.41.6,2.91.8,4.24.97,1.69.22,3.13.42,3.64,1.33.65,1.16.44,5.01-.5,5.54-.24.13-.72.14-1.07.14-.27,0-.56,0-.87-.02-.53-.02-1.1-.04-1.68-.02-.52.02-1.09.06-1.65.1-1.33.09-2.74.17-3.56.07-.61-.08-1.15-.25-1.68-.42-.78-.24-1.59-.49-2.54-.41-.41.03-.78.18-1.15.33-.33.13-.67.27-1.03.33-.27.04-.55.06-.85.06-.78,0-1.58-.14-2.42-.28-.56-.1-1.13-.2-1.74-.26-.91-.11-1.98-.16-3.03-.16s-1.99.06-2.69.16c-.42.06-.87.19-1.35.33-.68.2-1.37.41-2.01.41-.22,0-.42-.02-.61-.08-.35-.1-.61-.42-.91-.78-.21-.25-.44-.55-.74-.8-.3-.23-.63-.42-.92-.56-.4-.21-.72-.38-.9-.67.06-.32.21-.55.41-.85ZM134.65,166.91c-.44-.2-.7-.53-1-.88-.4-.5-.86-1.06-1.85-1.38-1.01-.32-2.24-.35-3.51-.35h-.72c-1.69,0-3.29-.06-4.24-.76-.47-.33-.76-1.09-1.08-1.88-.51-1.31-1.14-2.93-2.95-2.98h-.09c-1.57,0-2.31,1.21-2.96,2.27-.4.65-.78,1.27-1.32,1.59-.25.17-.72.24-1.26.33-.43.07-.91.15-1.44.28-1.1.29-2.41.74-3.66,1.17-.79.28-1.48.65-2.03.94-.5.26-.92.5-1.2.54-.37.06-.7.08-.99.08-1.67,0-1.96-.82-2-3.31,0-.26-.02-.56-.04-.88-.04-.71-.08-1.59.02-1.96.44-1.52,2.73-2.18,5.16-2.89,1.43-.41,2.91-.83,4.21-1.48.62-.3,1.2-.74,1.76-1.17.77-.59,1.49-1.13,2.06-1.11.81.42,1.62.46,2.41.49.5.03.96.05,1.41.17.37.09.74.34,1.14.58.6.38,1.28.81,2.12.81.15,0,.31,0,.46-.04.21.09.44.35.68.62.4.46.85.98,1.55,1.17.38.1.86.02,1.3-.06.33-.07.63-.13.9-.09.51.07,1.3.52,2.06.95.56.32,1.13.65,1.64.85l.46.18c1.38.55,2.38.94,2.8,1.63.11.18.2.6.28,1.03.09.43.18.9.34,1.36.15.44.36.84.54,1.2.23.43.44.85.43,1.13-.04.87-.53,1.53-1.39,1.88ZM133.19,151.9c-.23.02-.46.03-.69.03h0c-.17,0-.31,0-.44-.03-.25-.04-.54-.17-.84-.3-.31-.14-.62-.28-.95-.35-.35-.07-.68-.07-.98-.08-.3,0-.57,0-.8-.07-.69-.23-1.18-.66-1.65-1.07-.28-.26-.57-.51-.89-.71-.44-.28-.89-.49-1.28-.68-.56-.27-1.05-.5-1.38-.83-.76-2.57-2.09-3.88-3.94-3.88-.43,0-.88.07-1.35.22-.97.29-1.51,1.12-1.99,1.85-.43.66-.83,1.28-1.46,1.44-.34.09-.74.02-1.16-.07-.41-.09-.87-.17-1.28-.1-.81.14-1.25.54-1.64.9-.26.24-.48.44-.81.57-.3-.05-.59-.07-.89-.07-.7,0-1.3.13-1.93.27-.54.12-1.09.24-1.8.31-.57.06-1.08.39-1.58.72-.52.36-.99.69-1.45.6-1.01-.19-.98-2.58-.96-4.9,0-.87.02-1.76-.02-2.63-.02-.38-.05-.77-.1-1.19-.09-1.08-.2-2.19.07-2.95.17-.45,2.62-3.22,3.51-3.95.82-.69,1.54-1.07,2.03-1.07h0c.5.01,1.07.52,1.56.97.37.33.72.64,1.08.81.43.2.95.3,1.46.4.21.04.42.08.61.13.34.08.69.13,1.03.17.33.04.66.07.94.16.95.27,1.8.8,2.7,1.36,1.23.77,2.5,1.57,4.13,1.77.93,1.18,2.21,1.8,3.56,2.46.52.26,1.05.51,1.58.81.21.11.4.3.61.5.28.26.57.53.93.68.36.15.76.18,1.13.2.32.02.62.05.86.13.39.15.74.44,1.12.76.41.34.84.69,1.35.9.38.15.77.17,1.11.18.31.02.61.04.86.14.32.13.58.44.86.77.27.3.54.63.91.85.39.24.82.37,1.18.48.56.16.9.28,1.1.6.04.46.2.91.36,1.35.24.63.45,1.17.19,1.63-.15.26-.32.36-.61.36s-.69-.11-1.14-.23c-.43-.13-.93-.26-1.46-.34-.17-.03-.37-.04-.58-.04-.25,0-.51.01-.76.03ZM72.1,18.92c.24-.45.46-.84.51-1.16.11-.63.07-1.28.04-1.91-.09-1.57-.07-2.47,1.31-2.88.09-.02.58-.07,1.17-.07.46,0,.84.03,1.13.07.26.05.51.17.78.29.32.16.65.31,1.04.37.56.09,1.17.13,1.94.13.34,0,.68,0,1.01-.02.3,0,.6-.01.88-.01,1.62,0,2.24.27,2.44,1.08.1.39-.37.87-.91,1.42-.16.17-.32.33-.48.5-.47.52-.83,1.02-1.15,1.47-.24.34-.46.64-.65.84-.37.37-.8.68-1.25,1-.41.3-.82.6-1.22.96-.24.22-.47.47-.7.7-.5.54-.97,1.03-1.46,1.19-.47.15-.97.23-1.48.23-1.74,0-3.56-.99-3.58-2.65,0-.38.35-1.04.64-1.57ZM66.5,20.95v.07c-.07.57-.13,1.15-.39,1.5-.72-.13-1.3-.3-1.96-.51-.48-.14-.98-.28-1.58-.44-2.82-.7-6.51-3.38-6.46-4.7.04-.97.4-1.02,1.66-1.02.39,0,.82,0,1.28-.06.42-.05,1.08-.28,1.84-.54.75-.25,1.6-.54,2.14-.62.09-.01.2-.02.33-.02.17,0,.35.01.52.02.34.02.67.04.96,0,.2-.03.37-.11.53-.18.15-.07.28-.14.41-.14.03,0,.08,0,.15.03.65,2.15.85,4.31.59,6.59ZM62.75,229.06c.42-.53.96-.67,1.7-.87.14-.04.28-.08.44-.13,1.55-.45,2.87-.84,4.99-.8h.14c.19,0,.38-.01.58-.01.38,0,.76-.02,1.06.01.31.03.62.12.95.22.44.13.9.27,1.39.28h.05c.49,0,.99-.13,1.46-.27.34-.09.69-.18,1.03-.24.91-.12,1.98-.19,3.24-.19,1.17,0,2.38.06,3.56.11,1.14.05,2.32.1,3.42.1,1.19,0,2.17-.06,3-.18.14-.02.3-.05.48-.07.59-.1,1.41-.23,2.16-.23.61,0,1.07.08,1.39.26,1.27.7,2.08,3.55,1.61,5.66-.19.84-.88,1.59-1.48,2.23-.22.26-.44.49-.62.72-.22-.02-.44-.03-.69-.03-.76,0-1.52.09-2.32.18-.98.12-1.98.24-3.06.2-.33-.02-.68-.09-1.05-.17-.4-.08-.82-.16-1.26-.17-.45-.02-.93.03-1.39.08-.4.04-.82.09-1.22.09h-.05c-.6,0-1.24-.13-1.86-.24-.65-.13-1.32-.25-1.99-.25h-.13c-.43.02-.82.14-1.19.28-.29.09-.56.19-.83.22-.38.05-.99.03-1.64,0-.72-.03-1.54-.06-2.15,0-.39.04-.76.15-1.13.26-.33.1-.69.2-1.02.24-.43.05-.91.05-1.42.05-.68,0-1.37,0-2.06.12-.45.07-.82.14-1.13.2-.48.1-.83.17-1.09.17-.4,0-.64-.14-1.38-1.07-.38-.48-.81-1.02-.88-1.42-.11-.7.04-1.52.21-2.37.19-.98.38-2,.17-2.93ZM64.02,242.61c.98-.19,3.45-.31,6.14-.31,1.75,0,3.39.05,4.65.15.23.02.5.08.79.15.39.09.79.19,1.19.19h.05c.46,0,.86-.15,1.24-.28.27-.09.52-.18.78-.22.73-.09,1.58-.14,2.61-.14.93,0,1.91.04,2.86.07.96.03,1.95.07,2.9.07s2-.03,2.97-.05c.97-.03,1.89-.05,2.8-.05,1.03,0,1.87.03,2.62.1.79.07,1.36.1,1.94.1s1.18-.02,1.94-.1c1.05-.1,2.18-.14,3.46-.14,1.65,0,3.31.08,4.41.14,1.4.08,2.84.19,4.24.3,1.76.13,3.59.28,5.35.36.71.04,1.39.02,2.06,0,.64-.02,1.27-.02,1.9,0,.47.02.96.09,1.43.16.58.08,1.19.17,1.78.17h.12c.41,0,.83-.09,1.22-.17.38-.08.74-.15,1.09-.16.77-.02,1.34-.09,1.95-.17.76-.1,1.55-.2,2.82-.2.45,0,.95,0,1.48.03.33.03.66.22.96.58,1,1.2,1.46,3.76,1.13,6.38-.05.37-.19.73-.32,1.08-.15.41-.32.83-.34,1.27-.06.96.14,1.84.34,2.76.25,1.1.5,2.24.32,3.65-.04.31-.16.65-.3.99-.16.43-.32.87-.37,1.34-.07.64.04,1.27.16,1.94.07.41.14.83.17,1.27.06.81.23,1.65.39,2.38.15.73.3,1.43.28,1.85s.03.98.09,1.59c.08.79.17,1.68.08,2.35-.19,1.45-2.17,3.33-2.65,3.44-.22-.06-.45-.09-.68-.09-.64,0-1.21.21-1.76.41-.4.14-.77.28-1.15.34-.31.04-.74.02-1.14,0-.46-.03-.94-.06-1.33,0-.37.05-.7.17-1.02.3-.31.11-.59.22-.89.27-.19.02-.41-.01-.66-.04-.31-.04-.64-.08-.92-.03-.42.08-.76.18-1.08.28-.63.19-1.17.35-2.21.26-.48-.04-1.1-.14-1.69-.23-.36-.06-.7-.11-.99-.15-.48-.06-1,0-1.5.06-.35.06-.7.1-1.04.1-1.85,0-3.91.08-5.19.52-.28.02-.54.03-.81.03-.95,0-1.7-.12-2.49-.25-.84-.14-1.71-.28-2.88-.28-.35,0-.72.02-1.09.04-1.09.04-1.35-.05-1.57-.14-.18-.06-.37-.14-.79-.15h-.06c-.51.06-.98.07-1.42.07s-.82-.02-1.17-.05c-.33-.02-.65-.04-1-.04-.61,0-1.21.06-2,.21-.43.13-.77.11-1.19.06-.22-.03-.47-.06-.76-.06-.45,0-.92.07-1.47.22-.2.06-.41.13-.61.2-.37.13-.75.28-1.13.28s-.78-.17-1.25-.35c-.43-.17-.92-.38-1.47-.47-.15-.02-.32-.04-.52-.04-.19,0-.4.02-.61.03-.33.02-.69.05-1.04,0-.24-.02-.53-.13-.82-.23-.33-.12-.68-.24-1.01-.26-.41-.04-.8.03-1.13.09-.31.05-.58.11-.82.07-.3-.04-.58-.18-.89-.31-.43-.2-.89-.42-1.4-.35-.63.07-1.11.25-1.53.4-.27.09-.52.18-.79.24-.02,0-.04,0-.06.02-.33.12-.59.04-.97-.1-.23-.08-.48-.17-.79-.23-.06,0-.11,0-.17,0-1.05.24-1.76.25-2.48.19-.32-.02-.65-.05-1.07-.04-.48.01-.92.13-1.35.25-.46.13-.89.24-1.37.24h-.06c-.76-.02-1.53-.24-2.28-.46l-.09-.02c-.27-.07-.58-.2-.9-.34-.57-.24-1.15-.49-1.68-.5h-.06c-.49,0-.89.18-1.28.36-.3.13-.58.26-.87.31-.28.04-.57-.02-.89-.07-.27-.06-.56-.1-.87-.1h-.2c-1.51,0-3.63.12-5.35.22-1.45.08-2.69.15-2.99.12-.43-.06-.74-.79-.79-1.44-.04-.54.31-1.05.76-1.7.28-.4.59-.86.85-1.39.18-.37.33-.79.5-1.22.19-.52.39-1.05.65-1.58.33-.65.6-1.3.85-1.92.1-.25.21-.5.31-.75.16-.36.36-.69.56-1.01.24-.39.48-.76.61-1.17.22-.69.33-1.42.43-2.13.1-.71.19-1.37.39-2,.07-.21.22-.43.38-.68.18-.25.35-.51.44-.8.17-.48.24-.94.31-1.39.08-.49.15-.96.34-1.38.13-.32.35-.61.57-.92.28-.39.57-.77.75-1.25.4-1.06.6-2.13.8-3.17.15-.82.3-1.59.54-2.29.76-2.24,3.36-5.23,4.8-5.51ZM132.75,236.66c-.59.11-1.31-.06-2.14-.27-.55-.15-1.17-.31-1.86-.39-.98-.13-2.18-.2-3.3-.2-.36,0-.72,0-1.06.02-.39.02-.78.1-1.15.17-.4.09-.78.16-1.15.16-.3,0-.63-.07-.98-.14-.39-.09-.83-.18-1.3-.19h-.11c-.56,0-1.11.12-1.59.21-.37.08-.7.15-.89.13-.46-.06-.75-.24-1.05-.43-.32-.19-.65-.39-1.14-.41-.51-.02-.98.12-1.44.26-.37.12-.72.22-1.07.24h-.05c-.33,0-.67-.11-1.04-.22-.43-.13-.87-.26-1.36-.28h-.05c-.36,0-.71.09-1.04.18-.3.08-.58.15-.84.15h-.05c-2.59-.11-5.47-2.06-5.71-3.45-.44-2.48,1.19-3.39,3.05-4.17.26-.1.54-.24.8-.38.35-.18.72-.37.94-.42.44-.09,1.09-.06,1.69-.02.38.02.74.05,1.06.04.37-.02.76-.06,1.17-.1.87-.08,1.82-.16,2.56-.08.46.06.91.2,1.33.35.46.15.89.29,1.33.32.43.04.91.05,1.47.05.69,0,1.4-.02,2.16-.05.76-.02,1.55-.06,2.32-.06.61,0,1.15.02,1.65.06.31.02.62.08.94.16.4.08.82.17,1.24.17s.77-.08,1.13-.16c.35-.08.67-.16,1.03-.17h.11c.65,0,1.44.15,2.29.31.33.06.67.13.99.19,2.85.46,4.71,1,4.61,3.87-.06,1.81-1.9,4.24-3.46,4.55Z"/>
  <path class="cls-1" d="M59.57,46.41c-.1-1.36-2.02-2.87-3.66-2.87h-.08c-.59.02-1.4.43-2.33.9-.69.36-1.41.72-2.08.94-.14.06-.4.09-.64.13-.37.05-.76.1-1.04.22-.61.26-1.14.69-1.7,1.14-.37.3-.76.62-1.17.87-.3.18-.64.31-.99.45-.38.15-.77.3-1.15.53-.44.26-.85.59-1.24.92-.42.34-.81.66-1.22.89-1.26.7-2.78,1.22-4.25,1.72-.87.3-1.69.58-2.48.89-.32.14-.69.24-1.07.35-.48.14-.98.28-1.43.49-.54.26-1.08.71-1.61,1.14-.46.38-.93.77-1.39,1.03-.27.15-.59.27-.93.39-.35.12-.71.25-1.05.43-.4.22-.76.5-1.1.77-.35.26-.68.53-1.04.72-.46.24-.93.45-1.39.65-.67.3-1.25.55-1.65.87-.44.37-.8.83-1.15,1.29-.37.48-.72.94-1.11,1.16-.21.12-.48.17-.76.23-.29.06-.6.11-.87.26-.51.26-1.07.64-1.56.97-.46.32-1.17.79-1.37.81-.09,0-.18.02-.25.07-1.22.83-2.25,1.76-3.45,2.86-.29.26-.59.54-.9.82-.38.34-.66.82-.93,1.26-.19.32-.38.65-.61.93-.35.45-.75.78-1.13,1.1-.69.59-1.33,1.13-1.44,2.09-.11.95.14,1.78.71,2.42.64.71,1.62,1.1,2.78,1.1.31,0,.64-.03.96-.08,1.66-.29,4.64-2.63,4.98-2.89.53-.42,1.04-.89,1.54-1.33.92-.83,1.79-1.62,2.69-2.1.24-.13.5-.17.81-.22.3-.05.63-.11.98-.25.28-.12.56-.33.87-.56.22-.16.44-.33.67-.46.2-.12.47-.24.73-.35.34-.16.69-.32.95-.49.33-.23.61-.51.89-.78.33-.33.65-.64,1.05-.85.3-.16.66-.26,1.03-.36.44-.11.89-.24,1.3-.47.6-.34,1.12-.81,1.62-1.28.5-.45.98-.89,1.52-1.2.76-.43,1.54-.81,2.29-1.18,2.15-1.06,4.18-2.06,5.51-3.92,1.87-.27,3.13-.49,4.72-1.16.59-.26,1.16-.72,1.77-1.23.54-.44,1.11-.9,1.74-1.28.26-.15.57-.25.91-.37.37-.13.76-.26,1.09-.46.22-.14.51-.43.98-.91.4-.4.9-.91,1.16-1.07.14-.08.35-.13.58-.18.28-.06.61-.14.91-.31.64-.39,1.42-1.06,2.11-1.66l.43-.37c.94-.81,2.05-2.01,1.96-3.16Z"/>
  <path class="cls-1" d="M131.2,73.31c-.12-.18-2.78-4.4-4.39-4.81-.46-.12-1.04-.08-1.48-.01-.24.03-.49.05-.57.04-1.11-.81-2.19-1.7-3.24-2.55-1.64-1.32-3.32-2.68-5.15-3.87-.04-.03-.09-.05-.14-.06-1.48-.32-2.26-.85-3.33-1.58-.31-.21-.63-.44-1-.67-.49-.31-1-.57-1.5-.83-.64-.31-1.24-.61-1.57-.94-.34-.33-.56-.78-.8-1.26-.35-.71-.76-1.52-1.62-1.95-.07-.04-.16-.05-.24-.04-.16.02-.32.03-.48.03h0c-.88,0-1.46-.3-2.08-.63-.62-.32-1.26-.65-2.2-.71-.45-.35-.93-.79-1.45-1.27-.96-.9-1.95-1.81-2.98-2.33-.3-.15-.61-.22-.91-.28-.26-.06-.51-.11-.76-.23-.67-.3-1.32-.85-2.02-1.44-.99-.86-2.02-1.73-3.22-1.89-1.65-.22-3.1.2-3.91,1.16-.64.75-.88,1.78-.69,2.96,0,.05.02.09.04.13.44.81,1.28.91,1.95.99.33.04.65.08.9.19.33.14.64.44.97.77.24.23.47.46.75.67,1.21.92,2.39,1.55,3.63,2.22l.56.3c.33.18.7.35,1.05.51.46.21.9.42,1.24.63.46.28.85.73,1.27,1.2.46.52.93,1.05,1.54,1.43.44.28.91.4,1.36.52.35.09.68.18.99.33,1.22.59,2.55,1.63,3.84,2.64l.38.29c.4.31.8.65,1.2.98.97.79,1.97,1.62,2.97,2.19.55.32,1.13.54,1.69.76.66.27,1.28.51,1.74.86.37.29.67.7.99,1.14.24.34.49.67.78.97.06.06.15.1.24.13,1.14.16,1.75.87,2.4,1.62.17.19.32.38.49.56.07.08.17.12.27.13,1.29.1,1.94.84,2.62,1.62.34.39.7.79,1.13,1.11.25.18.51.26.74.33.17.05.32.09.43.17.54.37.92.81,1.32,1.28.13.16.27.31.42.47.07.08.17.13.27.14.67.06,1.28.43,1.92.81.76.45,1.53.92,2.47.92.24,0,.48-.03.72-.09.17-.05.99-.51,1.22-.82,1.25-1.67-.24-4.04-.8-4.93Z"/>
  <path class="cls-1" d="M43.76,161.5c.19-.31.39-.65.44-1.02.26-1.62-.1-2.62-.42-3.52-.18-.5-.35-.98-.4-1.54-.24-2.66.24-6.71.8-8.43.04-.13.02-.27-.06-.39-.69-.91-.45-2.09-.17-3.44.28-1.38.61-2.94-.13-4.42-.03-.06-.06-.11-.11-.14-.28-.22-.56-.34-.85-.34s-.51.11-.73.21c-.23.11-.45.2-.75.2h-.01c-.19-.07-.37-.27-.57-.5-.34-.37-.76-.83-1.43-.83h-.06c-1.16.06-2.76,2.32-2.88,3.69-.06.63.13,1.29.31,1.98.19.7.39,1.44.35,2.18,0,.29-.12.63-.23,1-.13.43-.27.89-.27,1.33,0,.43.14.85.27,1.26.1.32.2.63.23.93.09.87-.02,1.74-.15,2.67-.1.74-.2,1.49-.19,2.25,0,.35.09.7.18,1.02.09.33.17.65.15.93-.02.32-.19.71-.35,1.09-.2.46-.42.98-.47,1.55-.04.45.03.92.1,1.35.07.41.13.8.07,1.07-.09.45-.5.84-.92,1.28-.22.22-.44.44-.65.69-.15.19-.29.39-.43.58-.42.56-.81,1.1-1.23,1.29-.28.13-.61.17-.94.2-.42.05-.85.09-1.24.31-.51.3-.76.78-1.01,1.23-.29.55-.54,1-1.17,1.16-.19-.15-.32-.38-.47-.63-.22-.38-.46-.79-.91-1.04-.2-.63-.52-.93-.79-1.19-.27-.25-.43-.4-.47-.86-.02-.32.14-.62.31-.95.21-.41.45-.87.35-1.41-.14-.73-.62-1.03-1-1.27-.33-.2-.56-.35-.63-.71.83-1.26,1.54-3.32,1.46-4.25,0-.05-.02-.09-.04-.13-.25-.58-.26-1.09-.28-1.79v-.38c-.02-.34.13-.7.28-1.08.17-.4.35-.86.37-1.36.02-.4-.07-.82-.16-1.2-.09-.38-.18-.76-.17-1.13,0-.37.09-.74.17-1.11.1-.46.21-.94.16-1.42-.05-.5-.25-.94-.45-1.38-.17-.39-.34-.76-.38-1.1-.03-.3.02-.72.08-1.13.04-.32.08-.65.09-.96.01-.52-.04-1.05-.1-1.56-.06-.52-.11-1-.07-1.39.02-.23.15-.51.29-.82.2-.44.41-.91.38-1.39-.03-.61-.4-.95-.72-1.25-.3-.29-.61-.58-.78-1.16-.06-.2-.09-.74-.13-1.28-.11-1.84-.23-3.92-1.43-3.92-.17,0-.35.05-.54.16-1.95,1.07-3.71,2.27-3.85,4.97-.02.41.07.79.17,1.17.09.39.19.76.16,1.14-.02.2-.14.49-.26.81-.17.4-.35.85-.4,1.32-.07.77,0,1.68.06,2.64.05.72.1,1.46.1,2.19,0,.54-.02,1.09-.04,1.68-.05,1.19-.1,2.42.05,3.5.06.4.2.76.35,1.12.14.36.28.69.31,1,.04.4-.02.89-.07,1.41-.06.5-.11,1.04-.09,1.54.02.56.11,1.11.19,1.64.09.66.19,1.26.15,1.78-.02.28-.13.57-.24.88-.12.36-.24.73-.26,1.11-.01.28.07.55.17.83.07.23.15.46.17.69.16,3.24.06,5.67-.27,6.21-.32.52-.69.77-1.17.77-.9,0-2.03-.85-2.85-1.47-.31-.23-.59-.44-.84-.59-.42-.26-.93-.44-1.38-.59-.38-.13-.73-.26-.92-.39-.91-.63-2.57-2.51-3.01-3.32-.16-.3-.26-.57-.34-.83-.13-.38-.25-.73-.54-1.06-.83-.93-.65-1.66-.37-2.77.13-.5.27-1.07.31-1.71.04-.53-.06-1.09-.15-1.67-.09-.54-.19-1.09-.18-1.66,0-.25.08-.53.15-.83.09-.37.18-.74.18-1.15,0-.36-.09-.71-.17-1.04-.08-.32-.16-.63-.16-.94,0-.24.08-.49.15-.76.07-.27.16-.54.18-.86.02-.34-.03-.69-.08-1.03-.04-.29-.08-.56-.08-.81,0-.57.06-1.13.11-1.63.07-.7.13-1.31.04-1.76-.08-.43-.31-.79-.53-1.13-.2-.33-.41-.65-.46-1-.04-.33.02-.62.1-.93.13-.49.26-1.06-.16-1.71-.04-.06-.09-.11-.15-.14-.56-.3-1.19-.45-1.89-.45-2.3,0-4.71,1.65-5.16,3.53-.21.88-.06,1.48.11,2.11.08.32.17.63.21,1.01.2,1.67.33,4.5.16,6.19-.03.32-.16.65-.3.99-.15.36-.3.73-.35,1.15-.1.81.02,1.66.15,2.48.08.52.16,1.06.18,1.56.01.28-.04.59-.09.88-.06.34-.11.67-.07.97.04.39.22.83.39,1.25.1.28.22.55.28.8.09.32.16.67.22,1.01.09.5.16.93.31,1.21.3.61.87,1.02,1.37,1.4.46.35.88.66,1.02,1.03-.35.23-.72.39-1.07.55-.57.27-1.11.52-1.58,1-1.78,1.86-1.24,7.55-.46,10.07-.02.13-.05.28-.08.42-.12.69-.28,1.54-.25,2.27.02.43.09.8.17,1.28.06.29.11.61.17,1.01.21,1.41.13,3.27.07,5.07-.04.93-.07,1.89-.07,2.8,0,.76-.03,1.55-.06,2.31-.13,3.34-.25,6.49,2.06,6.86.19.03.36.04.54.04,1.83,0,3.03-1.58,3.41-3.17.3-1.24.16-1.91,0-2.7-.06-.28-.11-.57-.16-.92-.1-.8-.08-1.76,0-2.17.08-.45.31-.84.54-1.24.24-.43.48-.85.61-1.39.09-.39.1-.8.11-1.26,0-.35,0-.74.06-1.08.04-.25.13-.5.22-.76.14-.36.28-.73.27-1.13,0-.42-.13-.82-.26-1.2-.12-.38-.24-.74-.24-1.1,0-.41.16-.84.32-1.31.14-.41.29-.83.35-1.28.18-1.46.38-4.03.16-5.1-.1-.48-.37-.89-.67-1.32-.25-.38-.51-.76-.67-1.21-.29-.82-.44-1.68-.56-2.52.43.21.8.49,1.2.8.17.13.35.27.54.39.17.13.41.26.68.4.55.31,1.29.71,1.51,1.11.08.16.09.43.1.72.01.39.02.84.22,1.24.41.83,1.38,1.38,2.24,1.86l.25.14c.56.31,1.14.5,1.71.68.47.14.91.29,1.28.49.54.28.97.85,1.43,1.45.24.31.49.64.77.94.28.3.56.57.85.83.58.54,1.14,1.05,1.38,1.69.51,1.3.43,2.82.33,4.56-.08,1.5-.17,3.2.12,4.98-.18.36-.52.48-1.1.63-.32.09-.67.19-.99.38-.33.19-.57.44-.8.68-.26.27-.48.5-.78.61-.15.06-.42.06-.7.04-.11,0-.22,0-.32,0-.24,0-.54.02-.82.14-.88.39-1.37,1.13-1.8,1.78-.32.49-.63.95-1.06,1.23-.16.09-.35.14-.59.19-.27.06-.57.12-.87.3-.46.25-.85.7-1.26,1.19-.3.34-.61.69-.95,1-.39.33-.87.62-1.33.9-.52.31-1.01.6-1.34.94-.2.2-.35.5-.52.83-.15.29-.3.59-.51.86-.17.23-.39.44-.59.65-.26.26-.54.54-.74.86-.21.33-.35.73-.48,1.11-.11.33-.22.63-.36.89-.16.28-.36.54-.56.78-.25.3-.48.58-.62.92-.52,1.24-1.09,3.27-1.19,4.76-.02.4.03.76.08,1.1.06.35.11.68.08,1.04-.02.28-.12.6-.22.92-.12.33-.23.68-.27,1.05-.18,1.62-.17,3.55-.17,5.25v.42c0,3.49.08,7.16.16,11.04.09,4.27.18,8.7.17,12.92,0,.45,0,.85,0,1.24-.02,1.27-.02,2.27.12,3.49.1.84.33,1.42.55,1.98.21.53.41,1.03.5,1.77.15,1.18.04,2.56-.07,3.89-.19,2.33-.37,4.54.87,5.62.6.51,1.58.63,2.3.63.58,0,1.23-.07,1.87-.2.07-.01.13-.05.19-.1,1.46-1.28,1.46-3.39,1.46-4.93,0-1.69,0-3.32-.17-4.84-.05-.46-.2-.89-.35-1.31-.16-.45-.31-.87-.32-1.29,0-.51.15-1.02.31-1.56.15-.48.3-.98.35-1.54.08-.76-.04-1.54-.15-2.28-.09-.57-.18-1.15-.18-1.72,0-.29.08-.61.17-.94.06-.26.13-.54.17-.83.12-1.08.19-2.35.24-3.48.03-.57.06-1.07.09-1.49.02-.22.05-.44.08-.65.05-.35.1-.71.09-1.05-.02-.38-.15-.73-.28-1.08-.11-.27-.2-.53-.22-.74-.01-.18.06-.42.14-.67.1-.31.2-.64.19-.97,0-.39-.11-.73-.21-1.02-.07-.24-.14-.45-.12-.58.03-.37.2-.73.38-1.12.22-.48.44-.98.45-1.55,0-.52-.13-.98-.27-1.41-.1-.33-.2-.64-.22-.94-.02-.26.02-.56.07-.87.06-.35.11-.72.09-1.11-.06-.98-.36-1.93-.64-2.85-.27-.89-.52-1.72-.52-2.4,0-.32.13-.8.24-1.26.19-.8.31-1.32.18-1.69-.49-1.25-.16-2.48.19-3.77.33-1.24.67-2.52.39-3.91-.06-.48.98-1.39,1.82-2.13.67-.59,1.37-1.22,1.89-1.86.26-.32.45-.69.64-1.06.2-.39.41-.78.67-1.08.38-.43.93-.87,1.52-1.33.25-.2.5-.39.75-.61.15-.13.3-.26.46-.39.7-.59,1.42-1.21,2-1.33.32-.07.65-.1.97-.1,1.55,0,2.89.76,2.99,1.7.03.3-.18.74-.41,1.21-.14.3-.29.6-.41.94-.67,1.91-.61,3.12-.52,5.32v.12c.06,1.21,0,2.57-.06,4-.08,1.99-.16,4.05.06,5.79.04.33.18.7.32,1.08.15.42.31.85.33,1.21.07,1.08-.13,2.14-.34,3.26-.12.63-.24,1.28-.32,1.95-.05.39-.02.8,0,1.2.02.38.04.76,0,1.11-.03.31-.13.62-.23.95-.12.39-.24.78-.27,1.2-.03.37.02.74.08,1.11.05.31.09.6.08.89-.04,1.15-.14,2.34-.25,3.49-.12,1.38-.25,2.81-.25,4.12,0,.85.06,1.7.11,2.53.09,1.24.17,2.43.06,3.54-.02.25-.13.5-.23.76-.13.35-.27.69-.27,1.09,0,.46.13.87.27,1.29.1.31.2.61.23.91.55,5.2.63,12.42-.15,14.86-.49,1.54-.39,3.08-.3,4.58.07,1.14.13,2.21-.04,3.24-.06.33-.25.58-.46.87-.23.3-.5.65-.56,1.13-.06.47.02.98.09,1.48.06.38.11.73.1,1.03-.06,1.08-.5,1.67-1.35,2.38-.51-.08-1.13,0-1.69.09-.51.08-.98.16-1.45.1-.34-.04-.73-.25-1.15-.47-.35-.19-.71-.38-1.09-.5-.53-.17-1.02-.27-1.46-.35-.95-.2-1.63-.35-2.13-.98-.4-.51-.38-1.21-.35-2.01.02-.53.03-1.06-.06-1.61-.09-.57-.34-1.1-.57-1.63-.16-.36-.32-.71-.43-1.06-.06-.22-.12-.45-.18-.67-.18-.73-.36-1.49-.89-2.12-.06-.08-.13-.12-.22-.14-.48-.12-1.05-.24-1.58-.24-.73,0-1.29.24-1.66.72-.04.04-.07.1-.08.16-.19.77-.13,1.44-.06,2.09.04.44.08.84.05,1.27-.03.35-.13.69-.23,1.06-.14.48-.28.98-.26,1.47v.11c.06,1.54.14,2.95.57,3.59,2.13,2.95,4.95,6.51,6.29,6.62,1.17,0,2.08.28,3.05.58.83.26,1.69.53,2.71.59,1.52.08,2.92-.24,4.26-.56.44-.1.87-.2,1.26-.28.08,0,.35.09.54.15.21.06.44.13.64.17.92.2,1.9.32,2.94.43.67.07,1.35.14,2.05.24.02,0,.04,0,.06,0h.21c2.67,0,7.33-.35,8.59-2.7.04-.06.06-.14.05-.2,0-.24,0-.5,0-.75.02-.93.04-1.87-.43-2.47-.04-.06-.09-.09-.15-.12-1.21-.59-2.58-.6-3.79-.61-1.94-.01-3.16-.09-3.77-1.49-.06-.15-.07-.34-.08-.59,0-.18-.02-.39-.05-.63-.46-3.26-.36-6.04.31-8.22.81-2.23.21-10.66-.3-13.22-.02-.45.18-1.2.35-1.88.13-.49.25-.97.3-1.34.05-.37-.07-.71-.18-1-.08-.25-.17-.48-.15-.67,0-.11.15-.38.24-.54.1-.19.19-.37.24-.52.04-.1.07-.2.11-.3.13-.39.26-.78.24-1.17-.02-.46-.19-.85-.36-1.24-.14-.32-.28-.63-.3-.92-.02-.22.06-.46.15-.71.09-.27.19-.57.18-.91-.02-.52-.22-.89-.39-1.22-.16-.28-.28-.5-.28-.78,1.12-1.79,1.06-3.73,1.01-5.77v-.16c-.03-.77-.02-1.54-.02-2.36,0-2.23.02-4.53-.47-7.04.41-1.65.33-3.54.23-5.52-.04-.89-.08-1.82-.08-2.74,0-1.09.09-2.23.17-3.33.09-1.25.19-2.55.16-3.79,0-.43-.05-.87-.09-1.28-.07-.64-.13-1.23-.07-1.8.06-.47.19-.93.33-1.35.2-.64.41-1.31.33-2.04-.06-.54-.31-1.03-.55-1.51-.23-.45-.45-.87-.44-1.24.02-.67.37-1.71,1.27-1.9.25.02.7.43.95.66l.05.05c1.38,1.28,2.65,2.71,3.57,4.06.05.07.12.13.2.16,2.13.74,2.54,2.61,3.03,5.61l.13.77c.2,1.19.43,2.53.53,3.66.12,1.32.07,2.72,0,4.07-.05,1.3-.1,2.52,0,3.69.04.47.17.89.28,1.27.11.37.2.7.22,1.02,0,.3-.07.6-.15.93-.1.39-.2.78-.18,1.22.01.39.14.74.27,1.09.11.31.22.61.23.89,0,.43-.11.9-.23,1.4-.13.5-.25,1.02-.27,1.55-.05,1.64-.02,3.41.02,5.13.06,2.87.1,5.58-.18,7.71-.04.34-.17.69-.31,1.05-.17.46-.35.96-.35,1.48,0,.47.16.98.32,1.52.15.49.3,1,.35,1.49.12,1.28.08,2.8.03,4.28-.01.38-.02.76-.03,1.12,0,.32-.02.65-.03.98-.09,2.73-.19,5.81,1.08,7.13.49.5,1.14.7,1.91.57,1.71-.28,2.77-4.84,2.83-5.32.21-1.76.19-4.18.17-6.51v-1.14c-.02-2.86-.23-5.55-.38-7.51-.12-1.58-.22-2.82-.14-3.24.08-.46.26-1.13.44-1.78.28-.99.43-1.57.41-1.87,0-.1-.02-.68-.04-1.46-.05-2.19-.14-6.27-.29-8.94-.03-.5-.07-1.02-.11-1.54-.13-1.77-.26-3.59-.06-5.33.03-.28.13-.56.22-.87.15-.42.29-.87.28-1.34-.02-.47-.19-.94-.35-1.4-.14-.39-.28-.76-.31-1.1-.12-1.35-.08-2.81-.04-4.23.02-.63.04-1.25.04-1.84,0-.23.05-.48.09-.73.06-.34.12-.67.07-.99-.09-.58-.44-1.24-.77-1.88-.16-.31-.3-.59-.42-.86-.2-.47-.42-.88-.63-1.29-.5-.95-.94-1.79-.98-3.02,0-.09-.03-.16-.08-.23-.35-.48-.9-.76-1.43-1.03-.39-.2-.8-.41-1.1-.69-.22-.2-.43-.55-.66-.94-.27-.43-.57-.95-.98-1.35-.28-.29-.63-.51-.98-.72-.32-.19-.61-.37-.84-.61-.37-.37-.71-.82-1.06-1.3-.43-.57-.88-1.17-1.43-1.69-1.06-1-2.08-2.06-2.36-2.96-.07-.22-.07-.48-.08-.79,0-.3,0-.63-.08-.98-.12-.55-.37-1.02-.62-1.49-.24-.44-.47-.87-.53-1.29-.05-.35.04-.83.13-1.34.09-.47.19-1.02.2-1.57,0-.31.02-.6.02-.85.03-1.84.04-2.28,1.31-3.29.54-.43.82-.51,1.21-.64.1-.04.21-.07.33-.11.76-.28,1.32-.82,1.82-1.28.39-.37.77-.72,1.16-.87.2-.07.48-.11.75-.14.35-.04.67-.07.94-.2.65-.32,1.52-1.18,2.43-2.09.39-.39.79-.79,1.14-1.11l.38-.35c1.22-1.11,2.48-2.25,2.87-3.28.15-.39.14-.8.13-1.19,0-.3-.01-.59.05-.83.08-.28.24-.57.39-.84Z"/>
</svg>